<svg width="28" height="28" viewBox="0 0 28 28" fill="none" xmlns="http://www.w3.org/2000/svg">
  <path d="M21.0232 6.78998H3.37158C2.89325 6.78998 2.49658 7.18664 2.49658 7.66498V24.0216C2.49658 24.5 2.89325 24.8966 3.37158 24.8966H21.0116C21.4899 24.8966 21.8866 24.5 21.8866 24.0216V7.66498C21.8866 7.18664 21.4899 6.78998 21.0116 6.78998H21.0232ZM20.1482 23.1466H4.24658V8.53998H20.1366V23.1466H20.1482Z" fill="white"/>
  <path d="M24.6282 3.10333H6.97656C6.49823 3.10333 6.10156 3.5 6.10156 3.97833C6.10156 4.45667 6.49823 4.85333 6.97656 4.85333H23.7416V17.3717C23.7416 17.85 24.1382 18.2467 24.6166 18.2467C25.0949 18.2467 25.4916 17.85 25.4916 17.3717V3.97833C25.4916 3.5 25.0949 3.10333 24.6166 3.10333H24.6282Z" fill="white"/>
</svg>
